<?xml version="1.0" ?>
<svg id="Layer_2" style="enable-background:new 0 0 32 32;" version="1.1" viewBox="0 0 32 32" xml:space="preserve" xmlns="http://www.w3.org/2000/svg" xmlns:xlink="http://www.w3.org/1999/xlink">
  <g>
    <path fill="white" d="M30,9.5H8.66998l12.97003-6.14001c0.75-0.35999,1.07001-1.25,0.71997-2c-0.35999-0.75-1.25-1.07001-2-0.71997l-19,9   C1.20001,9.72998,1.03998,9.83997,0.90997,9.96997C0.65002,10.25,0.51001,10.62,0.5,11v19c0,0.82996,0.66998,1.5,1.5,1.5h28   c0.83002,0,1.5-0.67004,1.5-1.5V11C31.5,10.16998,30.83002,9.5,30,9.5z M10.57001,26.5H6.42999c-0.83002,0-1.5-0.67004-1.5-1.5   c0-0.83002,0.66998-1.5,1.5-1.5h4.14001c0.83002,0,1.5,0.66998,1.5,1.5C12.07001,25.82996,11.40002,26.5,10.57001,26.5z    M10.57001,22H6.42999c-0.83002,0-1.5-0.67004-1.5-1.5c0-0.83002,0.66998-1.5,1.5-1.5h4.14001c0.83002,0,1.5,0.66998,1.5,1.5   C12.07001,21.32996,11.40002,22,10.57001,22z M10.57001,17.5H6.42999c-0.83002,0-1.5-0.67004-1.5-1.5   c0-0.83002,0.66998-1.5,1.5-1.5h4.14001c0.83002,0,1.5,0.66998,1.5,1.5C12.07001,16.82996,11.40002,17.5,10.57001,17.5z    M20.57001,27c-3.59003,0-6.5-2.92004-6.5-6.5c0-3.58002,2.90997-6.5,6.5-6.5c3.58002,0,6.5,2.91998,6.5,6.5   C27.07001,24.07996,24.15002,27,20.57001,27z"/>
    <circle fill="white" cx="20.57001" cy="20.5" r="3.5"/>
  </g>
</svg>
